<svg width="296" height="258" viewBox="0 0 296 258" fill="none" xmlns="http://www.w3.org/2000/svg">
<g clip-path="url(#clip0_51_139)">
<path d="M288.5 86.9503C286.42 86.9303 284.33 86.0303 283.26 84.2903C281.69 81.7503 282.31 78.5503 282.74 75.6203C284.92 60.7403 280.53 45.0603 270.86 33.2703C265.78 27.0703 259.27 21.9903 252 18.3603C248.32 16.5303 244.45 15.0703 240.46 14.0203C236.93 13.0903 232.58 13.2403 229.45 11.3803C227.45 10.1903 225.96 8.26029 226 5.91029C226.04 3.44029 227.83 1.09029 230.27 0.330286C232.18 -0.269714 234.26 0.0602862 236.23 0.450286C247.99 2.82029 259.31 7.49029 268.87 14.5003C278.43 21.5103 286.2 30.8903 290.68 41.6303C294.12 49.8803 295.59 58.8203 295.72 67.7103C295.78 71.5603 295.58 75.4103 295.15 79.2403C294.93 81.2003 294.6 83.2503 293.36 84.8303C292.23 86.2703 290.38 86.9603 288.52 86.9503H288.5ZM265.23 87.1203C262.79 87.1603 260.45 85.5903 259.58 83.4003C258.94 81.8003 259.08 80.0203 259.17 78.3103C259.45 73.1903 259.29 68.0303 258.31 63.0003C256.2 52.2303 249.87 41.9503 238.75 38.0703C237.18 37.5203 235.56 37.1203 233.91 36.8903C232.22 36.6503 230.45 36.5503 228.97 35.7203C227.93 35.1403 227.11 34.2303 226.61 33.1803C225.57 31.0003 226.01 28.2503 227.69 26.4703C229.58 24.4703 231.94 24.4503 234.5 24.7403C237.3 25.0503 239.98 25.4903 242.67 26.3903C248.11 28.2203 253.08 31.3003 257.15 35.2203C265.92 43.6503 270.01 54.9703 271.28 66.6203C271.66 70.0703 271.81 73.5303 271.8 77.0003C271.8 79.7103 271.81 82.8503 269.83 85.0303C268.71 86.3303 266.98 87.1003 265.24 87.1203H265.23Z" fill="#183D5A"/>
<path d="M229.04 62.7104C220.67 52.7804 210.77 44.1204 199.57 37.2504C156.48 10.8404 99.4699 11.7004 57.0699 39.1304C34.0199 54.0404 15.9899 76.1804 6.77989 102.1C3.83989 110.37 1.79989 118.96 0.789887 127.68C-1.43011 146.78 1.07989 166.83 7.80989 184.83C10.4699 191.94 13.8199 198.78 17.7699 205.26C21.8299 211.91 26.5599 218.13 31.7999 223.9C37.4199 230.09 43.5999 235.75 50.1199 240.98C53.0099 243.3 55.9399 245.57 58.9899 247.68C63.4199 250.74 68.2499 253.69 73.3699 255.44C78.1799 257.08 83.5899 257.52 88.2999 255.61C91.7299 254.22 94.6599 251.59 96.2999 248.27C97.9399 244.95 98.2599 240.98 97.0499 237.49C95.6199 233.35 92.2399 230.15 88.5499 227.79C83.3299 224.47 77.5799 222.2 72.4399 218.73C67.2999 215.26 62.4099 211.18 57.8799 206.84C46.1799 195.62 37.6499 179.89 33.5999 164.28C22.7199 122.34 45.4399 78.7804 83.0899 59.1304C112.28 43.8904 148.16 43.9604 177.31 59.3104C194.68 68.4504 209.19 82.8104 218.79 99.9004C229.63 119.2 232.16 142.82 226.59 164.29C220.86 186.36 207.34 205.26 188.59 218.16C185.86 220.04 183.03 221.77 180.1 223.31C176.9 225 173.58 226.48 170.58 228.49C167.58 230.5 164.85 233.13 163.45 236.46C161.44 241.23 162.52 247.05 165.78 251.07C168.02 253.84 171.21 255.82 174.69 256.59C180.87 257.96 187.24 255.56 192.84 252.61C202.94 247.28 211.91 240.07 220.13 232.19C228.53 224.14 236.12 215.5 242.23 205.55C242.29 205.46 242.35 205.36 242.4 205.26C246.35 198.78 249.7 191.94 252.36 184.83C267.87 143.34 257.07 95.9504 229.06 62.7104H229.04Z" fill="#183D5A"/>
<path d="M141.64 206.13C141.64 199.564 136.319 194.24 129.755 194.24C123.191 194.24 117.87 199.564 117.87 206.13V245.72C117.87 252.287 123.191 257.61 129.755 257.61C136.319 257.61 141.64 252.287 141.64 245.72V206.13Z" fill="#183D5A"/>
</g>
<defs>
<clipPath id="clip0_51_139">
<rect width="295.71" height="257.61" fill="white"/>
</clipPath>
</defs>
</svg>
